<svg xmlns="http://www.w3.org/2000/svg" viewBox="0 0 1024 1024" role="img" aria-label="Whisper Transcriber icon">
  <defs>
    <linearGradient id="bg" x1="0" y1="0" x2="1" y2="1">
      <stop offset="0%" stop-color="#1B6CFF"/>
      <stop offset="100%" stop-color="#0E3FAF"/>
    </linearGradient>
    <linearGradient id="mic" x1="0" y1="0" x2="0" y2="1">
      <stop offset="0%" stop-color="#FFFFFF"/>
      <stop offset="100%" stop-color="#DCE8FF"/>
    </linearGradient>
  </defs>

  <rect x="64" y="64" width="896" height="896" rx="220" fill="url(#bg)"/>
  <ellipse cx="370" cy="260" rx="300" ry="170" fill="#FFFFFF" opacity="0.12"/>

  <rect x="412" y="250" width="200" height="360" rx="100" fill="url(#mic)"/>
  <rect x="452" y="330" width="120" height="16" rx="8" fill="#A7C2FF"/>
  <rect x="452" y="376" width="120" height="16" rx="8" fill="#A7C2FF"/>

  <rect x="492" y="610" width="40" height="100" rx="20" fill="#EAF1FF"/>
  <rect x="402" y="708" width="220" height="44" rx="22" fill="#EAF1FF"/>

  <path d="M330 390c-42 42-42 110 0 152" fill="none" stroke="#DDE8FF" stroke-width="26" stroke-linecap="round" opacity="0.95"/>
  <path d="M274 338c-70 70-70 186 0 256" fill="none" stroke="#C8DAFF" stroke-width="24" stroke-linecap="round" opacity="0.85"/>

  <path d="M694 390c42 42 42 110 0 152" fill="none" stroke="#DDE8FF" stroke-width="26" stroke-linecap="round" opacity="0.95"/>
  <path d="M750 338c70 70 70 186 0 256" fill="none" stroke="#C8DAFF" stroke-width="24" stroke-linecap="round" opacity="0.85"/>
</svg>
